<svg xmlns="http://www.w3.org/2000/svg" width="1600" height="760" viewBox="0 0 1600 760">
  <rect width="1600" height="760" fill="#F5F7FA"/>
  <rect width="1600" height="390" fill="#DFF0FF"/>
  <g opacity=".65">
    <circle cx="1260" cy="130" r="58" fill="#FFFFFF"/>
    <rect x="1020" y="140" width="70" height="330" fill="#CBD5E1"/>
    <rect x="1042" y="70" width="26" height="90" fill="#CBD5E1"/>
    <rect x="170" y="260" width="180" height="250" fill="#E2E8F0"/>
    <rect x="380" y="220" width="130" height="290" fill="#E2E8F0"/>
  </g>
  <path d="M0 535 C430 410 1010 435 1600 555 L1600 760 L0 760Z" fill="#E5E7EB"/>
  <path d="M80 598 C560 460 980 480 1540 640" stroke="#475569" stroke-width="9" opacity=".25" fill="none"/>
  <g transform="translate(260 315)">
    <rect x="0" y="0" width="940" height="190" rx="80" fill="#CBD5E1"/>
    <path d="M650 0 C810 8 900 60 940 145 C840 166 735 158 650 130Z" fill="#0B3C5D"/>
    <rect x="75" y="50" width="470" height="52" rx="26" fill="#0B3C5D" opacity=".82"/>
    <rect x="150" y="115" width="52" height="85" rx="12" fill="#00A896"/>
    <rect x="390" y="115" width="52" height="85" rx="12" fill="#00A896"/>
    <circle cx="760" cy="178" r="30" fill="#111827"/>
    <circle cx="850" cy="170" r="25" fill="#111827"/>
  </g>
</svg>
